<svg width="22" height="21" viewBox="0 0 22 21" fill="none" xmlns="http://www.w3.org/2000/svg">
<path d="M10.3438 20.3438H3.125C2.03563 20.3438 1.15625 19.4644 1.15625 18.375V2.625C1.15625 1.53563 2.03563 0.65625 3.125 0.65625H18.875C19.9644 0.65625 20.8438 1.53563 20.8438 2.625V18.375C20.8438 19.4644 19.9644 20.3438 18.875 20.3438H14.2812V13.125H16.25L17.5625 9.84375H14.2812V7.21875C14.2812 6.49687 14.8719 6.5625 15.5938 6.5625H16.9062V3.28125H14.2812C13.1919 3.28125 12.2075 3.7275 11.4988 4.43625C10.79 5.145 10.3438 6.12938 10.3438 7.21875V9.84375H7.71875V13.125H10.3438V20.3438Z" stroke="#A9AEB2" stroke-width="1.3125" stroke-miterlimit="10" stroke-linecap="round" stroke-linejoin="round"/>
</svg>
