<svg width="21" height="20" viewBox="0 0 21 20" fill="none" xmlns="http://www.w3.org/2000/svg">
<path d="M13.4992 20H7.48359C7.36133 19.9895 7.23906 19.9723 7.1168 19.9691C6.31641 19.9488 5.51758 19.9172 4.73516 19.7254C3.09063 19.3219 1.86641 18.3867 1.13711 16.8449C0.68672 15.8918 0.546876 14.8672 0.535938 13.8266C0.512501 11.6602 0.488673 9.49375 0.50586 7.32773C0.513282 6.41992 0.56797 5.50469 0.701173 4.60742C0.909376 3.20937 1.58399 2.04883 2.72813 1.19141C3.70899 0.456641 4.84414 0.164453 6.04453 0.0796875C6.52383 0.0457031 7.00391 0.0261719 7.48359 0C9.47578 0 11.468 0 13.4602 0C13.9266 0.0257813 14.3934 0.0503906 14.8598 0.0777344C15.6762 0.125781 16.4758 0.266797 17.225 0.603516C19.0633 1.43047 20.032 2.90352 20.3336 4.85664C20.3867 5.20156 20.4137 5.55078 20.4523 5.89805V13.9449C20.4414 14.0145 20.4277 14.084 20.4203 14.1543C20.3781 14.5477 20.3582 14.9449 20.2922 15.3344C20.0801 16.5895 19.5438 17.6777 18.5801 18.5324C17.5355 19.459 16.2781 19.8285 14.9172 19.9207C14.4449 19.9527 13.9719 19.9738 13.4992 20ZM10.4934 18.2324L10.4941 18.2016C11.0215 18.2016 11.5492 18.2172 12.0758 18.1984C13.2066 18.1578 14.343 18.1574 15.4656 18.0348C16.9949 17.8672 18.0895 16.882 18.4344 15.4117C18.5785 14.7969 18.6332 14.1508 18.6457 13.5172C18.682 11.6625 18.6945 9.80703 18.6801 7.95195C18.6727 6.98398 18.6414 6.01016 18.5277 5.05C18.3371 3.44375 17.3238 2.35234 15.743 2.03789C15.0527 1.90078 14.3355 1.85781 13.6293 1.84766C11.7551 1.82031 9.87969 1.8168 8.00547 1.83867C7.13555 1.84883 6.2582 1.88047 5.39961 2.00625C3.87539 2.2293 2.83867 3.22148 2.5293 4.72969C2.3957 5.38125 2.35078 6.0582 2.33672 6.725C2.30234 8.33242 2.28984 9.94063 2.30742 11.5484C2.31992 12.673 2.34844 13.8016 2.45781 14.9195C2.56914 16.0566 3.11133 16.9836 4.12617 17.5758C4.75742 17.9441 5.45938 18.0965 6.18047 18.1219C7.61797 18.1723 9.05547 18.1969 10.4934 18.2324Z" fill="#A9AEB2"/>
<path d="M5.35157 9.99711C5.35586 7.16001 7.66875 4.85454 10.4996 4.86626C13.3453 4.87797 15.6433 7.18656 15.6258 10.0159C15.6082 12.8561 13.3168 15.1424 10.4906 15.1401C7.65391 15.1373 5.34766 12.8287 5.35157 9.99711ZM10.473 13.3299C12.3183 13.3385 13.8074 11.867 13.8191 10.0237C13.8308 8.17914 12.3601 6.68657 10.5176 6.6729C8.66524 6.65883 7.16953 8.13695 7.16172 9.9889C7.15391 11.8315 8.63047 13.3213 10.473 13.3299Z" fill="#A9AEB2"/>
<path d="M17.0262 4.671C17.0215 5.33975 16.4824 5.86709 15.8113 5.85928C15.1578 5.85147 14.6293 5.31006 14.6328 4.65147C14.6367 3.99287 15.1695 3.46553 15.8308 3.46631C16.5031 3.4667 17.0305 3.99834 17.0262 4.671Z" fill="#A9AEB2"/>
</svg>
