<svg width="21" height="17" viewBox="0 0 21 17" fill="none" xmlns="http://www.w3.org/2000/svg">
<path d="M18.5996 4.5L10.5996 9.5L2.59961 4.5V2.5L10.5996 7.5L18.5996 2.5V4.5ZM18.5996 0.5H2.59961C1.48961 0.5 0.599609 1.39 0.599609 2.5V14.5C0.599609 15.0304 0.810323 15.5391 1.1854 15.9142C1.56047 16.2893 2.06918 16.5 2.59961 16.5H18.5996C19.13 16.5 19.6387 16.2893 20.0138 15.9142C20.3889 15.5391 20.5996 15.0304 20.5996 14.5V2.5C20.5996 1.96957 20.3889 1.46086 20.0138 1.08579C19.6387 0.710714 19.13 0.5 18.5996 0.5Z" fill="#FFB73D"/>
</svg>
