<svg width="18" height="18" viewBox="0 0 18 18" fill="none" xmlns="http://www.w3.org/2000/svg">
<path d="M8.76869 0.522385L7.99839 1.29269C7.81607 1.475 7.81607 1.77061 7.99839 1.95297L14.0339 7.98846H0.750078C0.492246 7.98846 0.283203 8.1975 0.283203 8.45533V9.54471C0.283203 9.80254 0.492246 10.0116 0.750078 10.0116H14.0339L7.99839 16.0471C7.81607 16.2294 7.81607 16.525 7.99839 16.7074L8.76869 17.4777C8.95101 17.66 9.24662 17.66 9.42897 17.4777L17.5765 9.33018C17.7588 9.14786 17.7588 8.85225 17.5765 8.6699L9.42893 0.522385C9.24662 0.340032 8.95101 0.340032 8.76869 0.522385Z" fill="#1B1B1B"/>
</svg>
