<svg width="16" height="16" viewBox="0 0 16 16" fill="none" xmlns="http://www.w3.org/2000/svg">
<path fill-rule="evenodd" clip-rule="evenodd" d="M11.3346 6.16667C11.3346 8.744 9.2453 10.8333 6.66797 10.8333C4.09064 10.8333 2.0013 8.744 2.0013 6.16667C2.0013 3.58934 4.09064 1.50001 6.66797 1.50001C9.2453 1.50001 11.3346 3.58934 11.3346 6.16667ZM10.1208 11.0742C9.14442 11.7624 7.9534 12.1667 6.66797 12.1667C3.35426 12.1667 0.667969 9.48038 0.667969 6.16667C0.667969 2.85296 3.35426 0.166672 6.66797 0.166672C9.98168 0.166672 12.668 2.85296 12.668 6.16667C12.668 7.71388 12.0823 9.1243 11.1207 10.1884L14.3287 13.3964L15.0358 12.6893L15.9786 13.6321L14.3287 15.2821L10.1208 11.0742Z" fill="#F6C42D"/>
</svg>
