<svg width="25" height="20" viewBox="0 0 25 20" fill="none" xmlns="http://www.w3.org/2000/svg">
<path fill-rule="evenodd" clip-rule="evenodd" d="M0.847914 17.7896C3.06553 19.2358 5.64642 20 8.31115 20C12.2134 20 15.7894 18.4594 18.3812 15.6622C20.8613 12.9851 22.2256 9.38786 22.1578 5.73731C23.0979 4.91058 24.2037 3.33199 24.2037 1.7934C24.2037 1.20361 23.5809 0.829223 23.0759 1.12976C22.1927 1.66314 21.3873 1.80263 20.5589 1.56364C18.8673 -0.130855 16.3492 -0.487807 14.2274 0.687673C12.3731 1.7134 11.3422 3.59047 11.435 5.64192C8.30217 5.24907 5.40789 3.63458 3.38988 1.12566C3.05854 0.716393 2.42978 0.764602 2.16631 1.22823C1.19423 2.93914 1.20421 4.92186 2.04954 6.52301C1.64733 6.59584 1.39882 6.94356 1.39882 7.32C1.39882 8.92936 2.10343 10.4085 3.23819 11.4178C3.0266 11.627 2.95674 11.9378 3.04656 12.2148C3.54558 13.7554 4.67534 14.9596 6.08755 15.5627C4.55159 16.3166 2.85295 16.5679 1.34094 16.3771C0.558487 16.2684 0.172251 17.3495 0.847914 17.7896ZM8.51559 15.8261C9.07548 15.3841 8.77807 14.463 8.07546 14.4476C6.83791 14.4209 5.71114 13.7942 5.00953 12.8085C5.34786 12.7859 5.69817 12.7326 6.03151 12.6402C6.791 12.4289 6.75507 11.3027 5.9836 11.1437C4.58337 10.8545 3.48455 9.80617 3.07236 8.45632C3.44862 8.55171 3.83186 8.60505 4.2141 8.61223C4.9716 8.61633 5.25804 7.6183 4.64026 7.20083C3.24801 6.25819 2.65419 4.59345 3.04741 3.02819C5.4786 5.55968 8.77707 7.08493 12.2662 7.25725C12.7662 7.28905 13.1414 6.80593 13.0317 6.31666C12.5576 4.2047 13.7053 2.72458 14.9379 2.04247C16.1575 1.36549 18.1156 1.15419 19.6166 2.77279C20.0627 3.2559 21.5678 3.27436 22.3333 3.09076C21.9899 3.75543 21.462 4.38625 20.968 4.74115C20.7574 4.89296 20.6366 5.14528 20.6496 5.4089C20.8103 8.7784 19.5887 12.1284 17.2982 14.5994C14.9908 17.0888 11.8001 18.4602 8.31199 18.4602C6.92474 18.4602 5.56443 18.2284 4.27897 17.7812C5.81593 17.4755 7.27604 16.8067 8.51559 15.8261Z" fill="#A9AEB2"/>
</svg>
