<svg width="13" height="14" viewBox="0 0 13 14" fill="none" xmlns="http://www.w3.org/2000/svg">
<g clip-path="url(#clip0_2023_2299)">
<path d="M4.48886 0.5H1.50333C0.6744 0.5 0 1.1744 0 2.00333V4.98886C0 5.81779 0.6744 6.49219 1.50333 6.49219H4.48886C5.31779 6.49219 5.99219 5.81779 5.99219 4.98886V2.00333C5.99219 1.1744 5.31779 0.5 4.48886 0.5ZM4.97656 4.98886C4.97656 5.25777 4.75777 5.47656 4.48886 5.47656H1.50333C1.23442 5.47656 1.01562 5.25777 1.01562 4.98886V2.00333C1.01562 1.73442 1.23442 1.51562 1.50333 1.51562H4.48886C4.75777 1.51562 4.97656 1.73442 4.97656 2.00333V4.98886Z" fill="#F6C42D"/>
<path d="M11.4766 0.5H8.53125C7.69123 0.5 7.00781 1.18341 7.00781 2.02344V4.96875C7.00781 5.80877 7.69123 6.49219 8.53125 6.49219H11.4766C12.3166 6.49219 13 5.80877 13 4.96875V2.02344C13 1.18341 12.3166 0.5 11.4766 0.5ZM11.9844 4.96875C11.9844 5.24876 11.7566 5.47656 11.4766 5.47656H8.53125C8.25124 5.47656 8.02344 5.24876 8.02344 4.96875V2.02344C8.02344 1.74343 8.25124 1.51562 8.53125 1.51562H11.4766C11.7566 1.51562 11.9844 1.74343 11.9844 2.02344V4.96875Z" fill="#F6C42D"/>
<path d="M4.48886 7.50781H1.50333C0.6744 7.50781 0 8.18221 0 9.01114V11.9967C0 12.8256 0.6744 13.5 1.50333 13.5H4.48886C5.31779 13.5 5.99219 12.8256 5.99219 11.9967V9.01114C5.99219 8.18221 5.31779 7.50781 4.48886 7.50781ZM4.97656 11.9967C4.97656 12.2656 4.75777 12.4844 4.48886 12.4844H1.50333C1.23442 12.4844 1.01562 12.2656 1.01562 11.9967V9.01114C1.01562 8.74223 1.23442 8.52344 1.50333 8.52344H4.48886C4.75777 8.52344 4.97656 8.74223 4.97656 9.01114V11.9967Z" fill="#F6C42D"/>
<path d="M11.4766 7.50781H8.53125C7.69123 7.50781 7.00781 8.19123 7.00781 9.03125V11.9766C7.00781 12.8166 7.69123 13.5 8.53125 13.5H11.4766C12.3166 13.5 13 12.8166 13 11.9766V9.03125C13 8.19123 12.3166 7.50781 11.4766 7.50781ZM11.9844 11.9766C11.9844 12.2566 11.7566 12.4844 11.4766 12.4844H8.53125C8.25124 12.4844 8.02344 12.2566 8.02344 11.9766V9.03125C8.02344 8.75124 8.25124 8.52344 8.53125 8.52344H11.4766C11.7566 8.52344 11.9844 8.75124 11.9844 9.03125V11.9766Z" fill="#F6C42D"/>
</g>
<defs>
<clipPath id="clip0_2023_2299">
<rect width="13" height="13" fill="white" transform="translate(0 0.5)"/>
</clipPath>
</defs>
</svg>
