<svg width="16" height="25" viewBox="0 0 16 25" fill="none" xmlns="http://www.w3.org/2000/svg">
<path d="M15.2381 14.1667V19.5833C15.2386 19.8778 15.1438 20.163 14.9705 20.3884C14.7972 20.6138 14.5565 20.7648 14.2911 20.8147C14.0257 20.8647 13.7528 20.8102 13.5206 20.6611C13.2884 20.512 13.1119 20.2778 13.0225 20H9.52381V21.815L12.1272 22.59C12.3643 22.6617 12.5734 22.8164 12.7224 23.0304C12.8714 23.2444 12.9522 23.506 12.9524 23.775C12.9519 24.0997 12.8337 24.411 12.6238 24.6406C12.4139 24.8702 12.1293 24.9994 11.8324 25H4.16762C3.89623 24.9994 3.63424 24.8911 3.43022 24.6954C3.2262 24.4997 3.09396 24.2297 3.05802 23.9354C3.02207 23.6412 3.08486 23.3427 3.23474 23.0953C3.38461 22.8478 3.61143 22.6681 3.87314 22.5896L6.47619 21.815V20H2.97752C2.88807 20.2778 2.71161 20.512 2.47941 20.6611C2.24722 20.8102 1.97426 20.8647 1.70888 20.8147C1.44351 20.7648 1.20285 20.6138 1.02952 20.3884C0.856197 20.163 0.761395 19.8778 0.761905 19.5833V14.1667C0.559834 14.1667 0.366041 14.0789 0.223156 13.9226C0.0802708 13.7663 0 13.5543 0 13.3333V12.0833C0 11.8623 0.0802708 11.6504 0.223156 11.4941C0.366041 11.3378 0.559834 11.25 0.761905 11.25H2.28571V10.0071C2.2798 9.38336 2.13839 8.77011 1.87314 8.21792C1.64595 7.73842 1.52621 7.20672 1.52381 6.66667C1.52381 5.61583 2.13791 5.0225 2.78781 4.39375C3.4819 3.72292 4.26667 2.9625 4.50095 1.41667C4.55481 1.02492 4.73466 0.667036 5.00819 0.407355C5.28171 0.147675 5.63096 0.0032337 5.99314 0L10.0069 0C10.369 0.0032337 10.7183 0.147675 10.9918 0.407355C11.2653 0.667036 11.4452 1.02492 11.499 1.41667C11.7314 2.96333 12.5181 3.72375 13.2133 4.39458C13.8621 5.0225 14.4762 5.61583 14.4762 6.66667C14.4738 7.20672 14.354 7.73842 14.1269 8.21792C13.8616 8.77011 13.7202 9.38336 13.7143 10.0071V11.25H15.2381C15.4402 11.25 15.634 11.3378 15.7768 11.4941C15.9197 11.6504 16 11.8623 16 12.0833V13.3333C16 13.5543 15.9197 13.7663 15.7768 13.9226C15.634 14.0789 15.4402 14.1667 15.2381 14.1667ZM13.7143 19.5833C13.7143 19.6938 13.7544 19.7998 13.8259 19.878C13.8973 19.9561 13.9942 20 14.0952 20C14.1963 20 14.2932 19.9561 14.3646 19.878C14.4361 19.7998 14.4762 19.6938 14.4762 19.5833V14.1667H13.7143V19.5833ZM4.0739 23.3937C3.98985 23.4187 3.91694 23.4762 3.86871 23.5555C3.82048 23.6348 3.80021 23.7306 3.81166 23.825C3.82311 23.9195 3.8655 24.0062 3.93097 24.069C3.99644 24.1318 4.08052 24.1665 4.16762 24.1667H11.8324C11.9272 24.166 12.0179 24.1245 12.0849 24.0512C12.152 23.9779 12.1899 23.8787 12.1905 23.775C12.1906 23.6886 12.1648 23.6046 12.1171 23.5358C12.0695 23.4669 12.0025 23.417 11.9265 23.3937L9.04267 22.5354C8.96202 22.5114 8.89084 22.459 8.8401 22.3863C8.78937 22.3137 8.76189 22.2248 8.7619 22.1333V20H7.2381V22.1333C7.23811 22.2248 7.21063 22.3137 7.1599 22.3863C7.10916 22.459 7.03798 22.5114 6.95733 22.5354L4.0739 23.3937ZM3.04762 19.1667H12.9524V16.6667H3.04762V19.1667ZM5.33333 14.1667C5.2323 14.1667 5.1354 14.2106 5.06396 14.2887C4.99252 14.3668 4.95238 14.4728 4.95238 14.5833V15.8333H11.0476V14.5833C11.0476 14.4728 11.0075 14.3668 10.936 14.2887C10.8646 14.2106 10.7677 14.1667 10.6667 14.1667H5.33333ZM10.6667 13.3333V6.875C10.3943 6.68208 9.60648 6.25 8 6.25C6.39352 6.25 5.60571 6.68125 5.33333 6.875V13.3333H10.6667ZM1.52381 19.5833C1.52381 19.6938 1.56394 19.7998 1.63539 19.878C1.70683 19.9561 1.80373 20 1.90476 20C2.0058 20 2.10269 19.9561 2.17414 19.878C2.24558 19.7998 2.28571 19.6938 2.28571 19.5833V14.1667H1.52381V19.5833ZM0.761905 12.0833V13.3333H3.04762V12.0833H0.761905ZM3.08876 5.2175C2.5741 5.72792 2.28571 6.095 2.28571 6.66667C2.28833 7.0755 2.37973 7.4778 2.55238 7.84042C2.87203 8.50954 3.04177 9.25215 3.04762 10.0071V11.25C3.24969 11.25 3.44348 11.3378 3.58637 11.4941C3.72925 11.6504 3.80952 11.8623 3.80952 12.0833V13.3333C3.80952 13.5543 3.72925 13.7663 3.58637 13.9226C3.44348 14.0789 3.24969 14.1667 3.04762 14.1667V15.8333H4.19048V14.5833C4.19098 14.4085 4.22516 14.2358 4.2908 14.0764C4.35644 13.917 4.45206 13.7746 4.57143 13.6583V6.83917L3.08876 5.2175ZM10.7459 1.55083C10.7208 1.35469 10.6326 1.17475 10.4972 1.04326C10.3617 0.911782 10.1879 0.837358 10.0069 0.833333H5.99314C5.81178 0.837094 5.6376 0.911504 5.50191 1.04318C5.36623 1.17486 5.27795 1.35516 5.25295 1.55167C5.07631 2.76266 4.50963 3.86468 3.65524 4.65875L4.99276 6.12167C5.424 5.83583 6.33867 5.41667 8 5.41667C9.66133 5.41667 10.576 5.83583 11.0072 6.12167L12.3429 4.65875C11.4891 3.86424 10.9231 2.7621 10.747 1.55125L10.7459 1.55083ZM12.9101 5.2175L11.4286 6.83917V13.6583C11.5479 13.7746 11.6436 13.917 11.7092 14.0764C11.7748 14.2358 11.809 14.4085 11.8095 14.5833V15.8333H12.9524V14.1667C12.7503 14.1667 12.5565 14.0789 12.4136 13.9226C12.2707 13.7663 12.1905 13.5543 12.1905 13.3333V12.0833C12.1905 11.8623 12.2707 11.6504 12.4136 11.4941C12.5565 11.3378 12.7503 11.25 12.9524 11.25V10.0071C12.9582 9.25215 13.128 8.50954 13.4476 7.84042C13.6203 7.4778 13.7117 7.0755 13.7143 6.66667C13.7143 6.095 13.4259 5.72792 12.9112 5.2175H12.9101ZM15.2381 12.0833H12.9524V13.3333H15.2381V12.0833Z" fill="#F6C42D"/>
</svg>
