<svg width="17" height="18" viewBox="0 0 17 18" fill="none" xmlns="http://www.w3.org/2000/svg">
<path d="M2.25 8.83334C2.25 5.47361 4.9736 2.75 8.33331 2.75V0.749996C3.86903 0.749996 0.249998 4.36904 0.249998 8.83334H2.25ZM8.33331 14.9167C4.9736 14.9167 2.25 12.1931 2.25 8.83334H0.249998C0.249998 13.2976 3.86903 16.9167 8.33331 16.9167V14.9167ZM14.4167 8.83334C14.4167 12.1931 11.6931 14.9167 8.33331 14.9167V16.9167C12.7976 16.9167 16.4167 13.2976 16.4167 8.83334H14.4167ZM8.33331 2.75C11.6931 2.75 14.4167 5.47361 14.4167 8.83334H16.4167C16.4167 4.36904 12.7976 0.749996 8.33331 0.749996V2.75ZM8.33331 -0.5C3.17868 -0.5 -1 3.67868 -1 8.83334H0.999998C0.999998 4.78325 4.28325 1.5 8.33331 1.5V-0.5ZM17.6667 8.83334C17.6667 3.67868 13.488 -0.5 8.33331 -0.5V1.5C12.3834 1.5 15.6667 4.78325 15.6667 8.83334H17.6667ZM8.33331 18.1667C13.488 18.1667 17.6667 13.988 17.6667 8.83334H15.6667C15.6667 12.8834 12.3834 16.1667 8.33331 16.1667V18.1667ZM-1 8.83334C-1 13.988 3.17868 18.1667 8.33331 18.1667V16.1667C4.28325 16.1667 0.999998 12.8834 0.999998 8.83334H-1ZM8.08334 6.125C8.08334 6.56223 7.72889 6.91667 7.29167 6.91667V4.91667C6.62433 4.91667 6.08334 5.45766 6.08334 6.125H8.08334ZM8.08334 6.54167V6.125H6.08334V6.54167H8.08334ZM6.45834 8.16667C7.3558 8.16667 8.08334 7.43913 8.08334 6.54167H6.08334C6.08334 6.33456 6.25123 6.16667 6.45834 6.16667V8.16667ZM4.83334 6.54167C4.83334 7.43913 5.56087 8.16667 6.45834 8.16667V6.16667C6.66544 6.16667 6.83334 6.33456 6.83334 6.54167H4.83334ZM4.83334 6.125V6.54167H6.83334V6.125H4.83334ZM7.29167 3.66667C5.93397 3.66667 4.83334 4.7673 4.83334 6.125H6.83334C6.83334 5.87187 7.03854 5.66667 7.29167 5.66667V3.66667ZM9.37501 3.66667H7.29167V5.66667H9.37501V3.66667ZM11.8333 6.125C11.8333 4.7673 10.7327 3.66667 9.37501 3.66667V5.66667C9.62811 5.66667 9.83331 5.87187 9.83331 6.125H11.8333ZM11.8333 7.13735V6.125H9.83331V7.13735H11.8333ZM10.7386 9.1828C11.4225 8.72687 11.8333 7.9593 11.8333 7.13735H9.83331C9.83331 7.2906 9.75671 7.4337 9.62921 7.51871L10.7386 9.1828ZM9.60581 9.938L10.7386 9.1828L9.62921 7.51871L8.49641 8.27393L9.60581 9.938ZM9.95831 9.2793C9.95831 9.544 9.82601 9.7912 9.60581 9.938L8.49641 8.27393C8.16025 8.49803 7.95834 8.8753 7.95834 9.2793H9.95831ZM9.95831 9.875V9.2793H7.95834V9.875H9.95831ZM8.33331 11.5C9.23081 11.5 9.95831 10.7725 9.95831 9.875H7.95834C7.95834 9.6679 8.12623 9.5 8.33331 9.5V11.5ZM6.70834 9.875C6.70834 10.7725 7.43587 11.5 8.33331 11.5V9.5C8.54041 9.5 8.70831 9.6679 8.70831 9.875H6.70834ZM6.70834 9.2793V9.875H8.70831V9.2793H6.70834ZM7.80303 7.23387C7.11913 7.6898 6.70834 8.45737 6.70834 9.2793H8.70831C8.70831 9.1261 8.78491 8.983 8.91241 8.898L7.80303 7.23387ZM8.93591 6.47864L7.80303 7.23387L8.91241 8.898L10.0453 8.14274L8.93591 6.47864ZM8.58331 7.13735C8.58331 6.87265 8.71561 6.62547 8.93591 6.47864L10.0453 8.14274C10.3814 7.91864 10.5833 7.54136 10.5833 7.13735H8.58331ZM8.58331 6.125V7.13735H10.5833V6.125H8.58331ZM9.37501 6.91667C8.93781 6.91667 8.58331 6.56223 8.58331 6.125H10.5833C10.5833 5.45766 10.0423 4.91667 9.37501 4.91667V6.91667ZM7.29167 6.91667H9.37501V4.91667H7.29167V6.91667ZM8.33331 12C8.42541 12 8.50001 12.0746 8.50001 12.1667H6.5C6.5 13.1792 7.32081 14 8.33331 14V12ZM8.16667 12.1667C8.16667 12.0746 8.24129 12 8.33331 12V14C9.34581 14 10.1667 13.1792 10.1667 12.1667H8.16667ZM8.33331 12.3333C8.24129 12.3333 8.16667 12.2587 8.16667 12.1667H10.1667C10.1667 11.1541 9.34581 10.3333 8.33331 10.3333V12.3333ZM8.33331 10.3333C7.32081 10.3333 6.5 11.1541 6.5 12.1667H8.50001C8.50001 12.2587 8.42541 12.3333 8.33331 12.3333V10.3333Z" fill="#F6C42D"/>
</svg>
