<svg width="12" height="18" viewBox="0 0 12 18" fill="none" xmlns="http://www.w3.org/2000/svg">
<path d="M1.80556 1.10192L4.66845 0.0332698C4.83027 -0.0270938 5.01147 -0.00445305 5.15346 0.0940552C5.29543 0.192563 5.38012 0.354318 5.38019 0.527076L5.38029 0.808574H6.43896V0.527323C6.43896 0.354423 6.52368 0.192563 6.66575 0.09402C6.80785 -0.00455851 6.98915 -0.0271992 7.15109 0.0334104L10.024 1.10811C11.1396 1.51314 11.8576 2.5414 11.8535 3.72852V12.073C11.8535 15.3412 9.19462 18 5.92641 18C2.65821 18 -0.00067234 15.3412 -0.00067234 12.073V3.70398C-0.000637054 2.55082 0.725201 1.50513 1.80556 1.10192ZM6.43896 4.49996C6.43896 4.20918 6.20239 3.97261 5.91161 3.97261H5.91158C5.6208 3.97261 5.38423 4.20918 5.38423 4.49996V5.48437C5.38423 5.76492 5.61095 5.97653 5.91161 5.97653C6.21227 5.97653 6.43896 5.76492 6.43896 5.48437V4.49996ZM6.43896 6.94593C6.2746 7.00105 6.09741 7.03122 5.91158 7.03122C5.72528 7.03122 5.54764 7.00091 5.38293 6.94554L5.38335 7.94493C5.38342 8.08865 5.4402 8.22299 5.54328 8.32322C5.64632 8.42338 5.78315 8.47657 5.92641 8.47235C6.209 8.46455 6.43892 8.21803 6.43892 7.92282V6.94593H6.43896ZM5.38079 1.86327L5.38128 3.00964C5.54718 2.95044 5.72563 2.91792 5.91161 2.91792C6.0965 2.91792 6.2739 2.95009 6.43896 3.00863V1.86327H5.38079ZM10.7988 12.073V9.02184L9.37174 10.4489V15.515C10.253 14.6328 10.7988 13.4154 10.7988 12.073ZM8.31705 16.3172V10.2305C8.31705 10.0906 8.37259 9.95648 8.47152 9.85762C8.47152 9.85762 10.7502 7.58701 10.7854 7.56556L10.7988 3.72483C10.8014 2.97653 10.366 2.35349 9.66224 2.09881C9.66044 2.09818 9.65868 2.09755 9.65693 2.09684L7.49368 1.28758V7.92278C7.49368 8.78369 6.8037 9.50317 5.95559 9.52658C5.52387 9.53885 5.11694 9.37967 4.80805 9.07929C4.49913 8.77888 4.32887 8.37616 4.3287 7.94532L4.32581 1.28688L2.17435 2.08995C1.50423 2.34006 1.05405 2.98866 1.05405 3.70395V7.55758C1.0942 7.58043 3.38134 9.85755 3.38134 9.85755C3.48023 9.95641 3.53581 10.0906 3.53581 10.2304V16.3171C4.24253 16.7168 5.05826 16.9453 5.92645 16.9453C6.79463 16.9454 7.61033 16.7168 8.31705 16.3172ZM2.48109 15.515V10.4489L1.05402 9.02184V12.073C1.05405 13.4154 1.59979 14.6328 2.48109 15.515Z" fill="#F6C42D"/>
</svg>
