<svg width="17" height="12" viewBox="0 0 17 12" fill="none" xmlns="http://www.w3.org/2000/svg">
<path d="M14.3248 4.96875H13.5752L12.8957 2.83611L14.3248 4.96875ZM3.42479 4.96875H2.67498L4.10478 2.83532L3.42479 4.96875ZM15.202 9.51217L15.1879 9.51575L15.1741 9.52014L12.0663 10.5092C11.7052 10.6152 11.317 10.4761 11.1233 10.2045L9.58207 7.93274L9.575 7.92231L9.56741 7.91225C9.31516 7.57802 8.93137 7.35938 8.50319 7.35938H8.50318H8.50317H8.50316H8.50315H8.50314H8.50313H8.50312H8.50311H8.5031H8.50309H8.50309H8.50308H8.50307H8.50306H8.50305H8.50304H8.50303H8.50302H8.50301H8.503H8.50299H8.50298H8.50297H8.50296H8.50295H8.50294H8.50294H8.50293H8.50292H8.50291H8.5029H8.50289H8.50288H8.50287H8.50286H8.50285H8.50284H8.50283H8.50282H8.50281H8.5028H8.5028H8.50279H8.50278H8.50277H8.50276H8.50275H8.50274H8.50273H8.50272H8.50271H8.5027H8.50269H8.50268H8.50267H8.50266H8.50266H8.50265H8.50264H8.50263H8.50262H8.50261H8.5026H8.50259H8.50258H8.50257H8.50256H8.50255H8.50254H8.50253H8.50252H8.50252H8.50251H8.5025H8.50249H8.50248H8.50247H8.50246H8.50245H8.50244H8.50243H8.50242H8.50241H8.5024H8.50239H8.50238H8.50238H8.50237H8.50236H8.50235H8.50234H8.50233H8.50232H8.50231H8.5023H8.50229H8.50228H8.50227H8.50226H8.50225H8.50224H8.50224H8.50223H8.50222H8.50221H8.5022H8.50219H8.50218H8.50217H8.50216H8.50215H8.50214H8.50213H8.50212H8.50211H8.5021H8.5021H8.50209H8.50208H8.50207H8.50206H8.50205H8.50204H8.50203H8.50202H8.50201H8.502H8.50199H8.50198H8.50197H8.50196H8.50196H8.50195H8.50194H8.50193H8.50192H8.50191H8.5019H8.50189H8.50188H8.50187H8.50186H8.50185H8.50184H8.50183H8.50182H8.50181H8.50181H8.5018H8.50179H8.50178H8.50177H8.50176H8.50175H8.50174H8.50173H8.50172H8.50171H8.5017H8.50169H8.50168H8.50167H8.50167H8.50166H8.50165H8.50164H8.50163H8.50162H8.50161H8.5016H8.50159H8.50158H8.50157H8.50156H8.50155H8.50154H8.50153H8.50153H8.50152H8.50151H8.5015H8.50149H8.50148H8.50147H8.50146H8.50145H8.50144H8.50143H8.50142H8.50141H8.5014H8.50139H8.50139H8.50138H8.50137H8.50136H8.50135H8.50134H8.50133H8.50132H8.50131H8.5013H8.50129H8.50128H8.50127H8.50126H8.50125H8.50125H8.50124H8.50123H8.50122H8.50121H8.5012H8.50119H8.50118H8.50117H8.50116H8.50115H8.50114H8.50113H8.50112H8.50111H8.50111H8.5011H8.50109H8.50108H8.50107H8.50106H8.50105H8.50104H8.50103H8.50102H8.50101H8.501H8.50099H8.50098H8.50097H8.50097H8.50096H8.50095H8.50094H8.50093H8.50092H8.50091H8.5009H8.50089H8.50088H8.50087H8.50086H8.50085H8.50084H8.50083H8.50082H8.50082H8.50081H8.5008H8.50079H8.50078H8.50077H8.50076H8.50075H8.50074H8.50073H8.50072H8.50071H8.5007H8.50069H8.50068H8.50068H8.50067H8.50066H8.50065H8.50064H8.50063H8.50062H8.50061H8.5006H8.50059H8.50058H8.50057H8.50056H8.50055H8.50055H8.50054H8.50053H8.50052H8.50051H8.5005H8.50049H8.50048H8.50047H8.50046H8.50045H8.50044H8.50043H8.50042H8.50041H8.5004H8.5004H8.50039H8.50038H8.50037H8.50036H8.50035H8.50034H8.50033H8.50032H8.50031H8.5003H8.50029H8.50028H8.50027H8.50026H8.50026H8.50025H8.50024H8.50023H8.50022H8.50021H8.5002H8.50019H8.50018H8.50017H8.50016H8.50015H8.50014H8.50013H8.50012H8.50012H8.50011H8.5001H8.50009H8.50008H8.50007H8.50006H8.50005H8.50004H8.50003H8.50002H8.50001H8.5H8.49999H8.49998H8.49998H8.49997H8.49996H8.49995H8.49994H8.49993H8.49992H8.49991H8.4999H8.49989H8.49988H8.49987H8.49986H8.49985H8.49984H8.49984H8.49983H8.49982H8.49981H8.4998H8.49979H8.49978H8.49977H8.49976H8.49975H8.49974H8.49973H8.49972H8.49971H8.4997H8.49969H8.49969H8.49968H8.49967H8.49966H8.49965H8.49964H8.49963H8.49962H8.49961H8.4996H8.49959H8.49958H8.49957H8.49956H8.49955H8.49955H8.49954H8.49953H8.49952H8.49951H8.4995H8.49949H8.49948H8.49947H8.49946H8.49945H8.49944H8.49943H8.49942H8.49941H8.49941H8.4994H8.49939H8.49938H8.49937H8.49936H8.49935H8.49934H8.49933H8.49932H8.49931H8.4993H8.49929H8.49928H8.49927H8.49927H8.49926H8.49925H8.49924H8.49923H8.49922H8.49921H8.4992H8.49919H8.49918H8.49917H8.49916H8.49915H8.49914H8.49913H8.49913H8.49912H8.49911H8.4991H8.49909H8.49908H8.49907H8.49906H8.49905H8.49904H8.49903H8.49902H8.49901H8.499H8.49899H8.49898H8.49898H8.49897H8.49896H8.49895H8.49894H8.49893H8.49892H8.49891H8.4989H8.49889H8.49888H8.49887H8.49886H8.49885H8.49885H8.49884H8.49883H8.49882H8.49881H8.4988H8.49879H8.49878H8.49877H8.49876H8.49875H8.49874H8.49873H8.49872H8.49871H8.4987H8.4987H8.49869H8.49868H8.49867H8.49866H8.49865H8.49864H8.49863H8.49862H8.49861H8.4986H8.49859H8.49858H8.49857H8.49856H8.49856H8.49855H8.49854H8.49853H8.49852H8.49851H8.4985H8.49849H8.49848H8.49847H8.49846H8.49845H8.49844H8.49843H8.49842H8.49842H8.49841C8.06494 7.35938 7.6824 7.5811 7.42442 7.92342L7.41691 7.93339L7.4099 7.94372L5.8793 10.2008C5.68158 10.4782 5.29193 10.6152 4.93821 10.5108L1.81091 9.51614L1.79701 9.51171L1.78287 9.50811C1.44986 9.42322 1.33213 9.34548 1.2984 9.31442C1.29816 9.3142 1.29793 9.31398 1.2977 9.31377C1.29727 9.30907 1.29688 9.30219 1.29688 9.29269V6.75093C1.29688 6.64072 1.40223 6.5 1.59375 6.5H15.4062C15.5978 6.5 15.7031 6.64072 15.7031 6.75093V9.29269C15.7031 9.30138 15.7028 9.30781 15.7024 9.31236C15.7022 9.31258 15.7019 9.3128 15.7017 9.31303C15.6658 9.3457 15.5437 9.42484 15.202 9.51217Z" stroke="#F6C42D"/>
</svg>
