<svg width="17" height="14" viewBox="0 0 17 14" fill="none" xmlns="http://www.w3.org/2000/svg">
<path d="M1.37207 0.211563H15.6279C16.3845 0.211563 17 0.827045 17 1.58364V12.4164C17 13.173 16.3845 13.7885 15.6279 13.7885H1.37207C0.615482 13.7885 0 13.173 0 12.4164V1.58364C0 0.827045 0.615482 0.211563 1.37207 0.211563ZM0.914717 12.4164C0.914717 12.6686 1.11986 12.8737 1.37207 12.8737H15.6279C15.8801 12.8737 16.0853 12.6686 16.0853 12.4164V1.58364C16.0853 1.33142 15.8801 1.12628 15.6279 1.12628H1.37207C1.11986 1.12628 0.914717 1.33142 0.914717 1.58364V12.4164Z" fill="#F6C42D"/>
<path d="M5.61335 3.49577C6.00759 2.76863 6.70851 2.36816 7.58706 2.36816C8.16717 2.36816 8.79022 2.5397 9.38881 2.86425L9.53528 2.94364C11.0974 3.79067 11.7268 5.23342 11.066 6.45219L10.2681 7.92372L10.268 7.92391L10.2679 7.92403L8.90346 10.4405C8.4869 11.2088 7.7908 11.6319 6.94328 11.6319C6.43116 11.6319 5.87069 11.4747 5.32241 11.1774L4.78711 10.8872C4.11035 10.5202 3.61609 10.0345 3.35784 9.4824C3.05769 8.84082 3.08983 8.14978 3.45084 7.48405L5.61335 3.49577ZM6.4175 3.93172L5.83751 5.00139L7.35765 5.82567L8.61459 3.50741C8.26188 3.36161 7.90648 3.28294 7.587 3.28294C7.04445 3.28288 6.65094 3.50119 6.4175 3.93172ZM9.41783 3.94507L8.16175 6.26162L9.68188 7.0859L10.2619 6.01624C10.724 5.1639 10.0517 4.38645 9.41783 3.94507ZM4.18639 9.09474C4.35866 9.46295 4.7268 9.81389 5.22313 10.083L5.75848 10.3733C6.17334 10.5982 6.58301 10.7171 6.94334 10.7171C7.45406 10.7171 7.843 10.4774 8.09942 10.0045L9.24593 7.88994L5.40156 5.80548L4.25505 7.92C4.03479 8.32614 4.01174 8.72136 4.18639 9.09474Z" fill="#F6C42D"/>
</svg>
