<svg width="14" height="18" viewBox="0 0 14 18" fill="none" xmlns="http://www.w3.org/2000/svg">
<path d="M13.0833 9.20834V12.3333C13.0833 12.7936 12.7102 13.1667 12.25 13.1667H2.875C1.83946 13.1667 1 14.0061 1 15.0417C1 16.0772 1.83946 16.9167 2.875 16.9167H5.375M4.33333 5.04167H9.74999M4.33333 8.375H7.24999M2.66666 1.5H12.25C12.7102 1.5 13.0833 1.8731 13.0833 2.33334V16.0833C13.0833 16.5436 12.7102 16.9167 12.25 16.9167H2.66666C1.74619 16.9167 1 16.1705 1 15.25V3.16667C1 2.2462 1.74619 1.5 2.66666 1.5Z" stroke="#F6C42D" stroke-width="1.5" stroke-linecap="round" stroke-linejoin="round"/>
</svg>
